<svg width="705" height="309" viewBox="0 0 705 309" fill="none" xmlns="http://www.w3.org/2000/svg">
<g clip-path="url(#clip0)">
<path d="M345.705 181.154H264.081L263.215 155.997C263.178 154.906 263.377 153.821 263.798 152.815C264.219 151.808 264.853 150.906 265.655 150.169C266.458 149.432 267.41 148.878 268.447 148.545C269.484 148.212 270.58 148.108 271.661 148.241L319.161 154.071H319.166C326.208 154.09 332.956 156.906 337.93 161.903C342.904 166.899 345.7 173.668 345.705 180.727V181.154Z" fill="#8338EC"/>
<path d="M309.325 91.9193H252.396C251.639 91.9191 250.889 92.0684 250.189 92.3587C249.49 92.6491 248.854 93.0747 248.319 93.6114C247.783 94.148 247.359 94.7852 247.069 95.4864C246.78 96.1876 246.631 96.9391 246.631 97.698V154.763C246.631 155.522 246.78 156.274 247.069 156.975C247.359 157.676 247.783 158.313 248.319 158.85C248.854 159.386 249.49 159.812 250.189 160.102C250.889 160.393 251.639 160.542 252.396 160.542H309.325C310.082 160.542 310.832 160.393 311.531 160.102C312.231 159.812 312.866 159.386 313.402 158.85C313.937 158.313 314.362 157.676 314.651 156.975C314.941 156.274 315.09 155.522 315.09 154.763V97.698C315.09 96.9391 314.941 96.1876 314.651 95.4864C314.362 94.7852 313.937 94.148 313.402 93.6114C312.866 93.0747 312.231 92.6491 311.531 92.3587C310.832 92.0684 310.082 91.9191 309.325 91.9193V91.9193Z" fill="#CCCCCC"/>
<path d="M296.504 134.59L269.625 139.837C268.03 140.147 266.379 139.809 265.032 138.899C263.685 137.99 262.754 136.582 262.442 134.984L260.375 124.349C260.067 122.751 260.403 121.095 261.311 119.745C262.219 118.395 263.623 117.461 265.217 117.148L292.096 111.902C293.69 111.592 295.342 111.929 296.688 112.839C298.035 113.749 298.967 115.157 299.279 116.755L301.345 127.39C301.654 128.988 301.317 130.644 300.41 131.994C299.502 133.344 298.097 134.277 296.504 134.59Z" fill="#FB5607"/>
<path d="M291.126 122.026L270.613 126.03C270.238 126.103 269.849 126.024 269.532 125.81C269.215 125.596 268.996 125.264 268.923 124.888C268.85 124.512 268.929 124.122 269.143 123.804C269.356 123.487 269.687 123.267 270.062 123.194L290.575 119.19C290.95 119.116 291.339 119.196 291.656 119.41C291.973 119.624 292.192 119.955 292.265 120.332C292.338 120.708 292.259 121.097 292.046 121.415C291.832 121.733 291.501 121.952 291.126 122.026V122.026Z" fill="white"/>
<path d="M287.139 127.955L276.529 130.027C276.154 130.1 275.765 130.021 275.448 129.806C275.131 129.592 274.912 129.261 274.839 128.885C274.766 128.508 274.845 128.119 275.058 127.801C275.272 127.483 275.603 127.264 275.978 127.19L286.588 125.119C286.774 125.083 286.965 125.084 287.15 125.122C287.336 125.159 287.512 125.233 287.669 125.339C287.826 125.445 287.96 125.581 288.065 125.74C288.169 125.898 288.242 126.075 288.278 126.261C288.314 126.447 288.313 126.639 288.276 126.825C288.238 127.011 288.164 127.187 288.058 127.345C287.953 127.502 287.817 127.637 287.659 127.742C287.501 127.847 287.325 127.919 287.139 127.955Z" fill="white"/>
<path d="M315.09 97.698V105.283H246.631V97.698C246.631 96.9391 246.78 96.1876 247.069 95.4864C247.359 94.7852 247.783 94.148 248.319 93.6114C248.854 93.0747 249.49 92.6491 250.189 92.3587C250.889 92.0684 251.639 91.9191 252.396 91.9193H309.325C310.082 91.9191 310.832 92.0684 311.531 92.3587C312.231 92.6491 312.866 93.0747 313.402 93.6114C313.937 94.148 314.362 94.7852 314.651 95.4864C314.941 96.1876 315.09 96.9391 315.09 97.698Z" fill="#B3B3B3"/>
<path d="M451.796 107.658C451.401 106.379 450.73 105.203 449.833 104.211C448.935 103.22 447.831 102.439 446.599 101.921C445.367 101.404 444.037 101.164 442.703 101.217C441.368 101.271 440.062 101.617 438.875 102.232L360.554 74.0646L357.104 93.6773L435.176 115.198C436.338 117.127 438.166 118.563 440.314 119.232C442.461 119.901 444.778 119.757 446.827 118.827C448.876 117.898 450.513 116.248 451.429 114.189C452.344 112.13 452.475 109.806 451.796 107.658V107.658Z" fill="#FFB8B8"/>
<path opacity="0.2" d="M451.796 107.658C451.401 106.379 450.73 105.203 449.833 104.211C448.935 103.22 447.831 102.439 446.599 101.921C445.367 101.404 444.037 101.164 442.703 101.217C441.368 101.271 440.062 101.617 438.875 102.232L360.554 74.0646L357.104 93.6773L435.176 115.198C436.338 117.127 438.166 118.563 440.314 119.232C442.461 119.901 444.778 119.757 446.827 118.827C448.876 117.898 450.513 116.248 451.429 114.189C452.344 112.13 452.475 109.806 451.796 107.658V107.658Z" fill="black"/>
<path d="M374.456 77.6385L367.06 97.0064C366.849 97.5575 366.523 98.0566 366.103 98.4698C365.682 98.883 365.178 99.2006 364.624 99.4008C364.071 99.6011 363.48 99.6794 362.894 99.6305C362.307 99.5815 361.738 99.4063 361.225 99.1169L343.25 88.9759C340.444 87.8805 338.185 85.7144 336.97 82.9524C335.754 80.1904 335.681 77.0579 336.766 74.2418C337.851 71.4256 340.005 69.1556 342.757 67.9292C345.509 66.7029 348.634 66.6204 351.446 67.6999L371.518 72.1622C372.093 72.2901 372.633 72.5407 373.102 72.8969C373.572 73.253 373.959 73.7064 374.238 74.2261C374.517 74.7458 374.68 75.3196 374.718 75.9085C374.755 76.4973 374.666 77.0874 374.456 77.6385V77.6385Z" fill="#8338EC"/>
<path d="M457.961 125.591L429.897 138.378L433.581 152.282C440.696 179.133 442.585 207.106 439.143 234.672L459.661 238.968L476.67 195.492L470.717 146.05L457.961 125.591Z" fill="#8338EC"/>
<path d="M513.025 189.951C494.587 189.951 479.56 203.388 478.831 220.214H547.22C546.491 203.388 531.464 189.951 513.025 189.951Z" fill="#3F3D56"/>
<path d="M498.672 192.851C497.712 116.899 454.559 123.886 454.559 123.886C454.559 123.886 455.366 147.528 455.754 148.263C483.253 200.416 437.869 261.557 380.1 250.309C379.011 250.097 377.965 249.882 376.961 249.664C369.641 248.132 363.179 243.863 358.888 237.724C354.596 231.586 352.799 224.04 353.861 216.62C359.552 170.813 331.248 171.624 331.248 171.624H289.861L268.368 152.234C267.609 151.55 266.695 151.062 265.704 150.814C264.714 150.565 263.679 150.564 262.688 150.809C261.697 151.055 260.781 151.54 260.021 152.223C259.26 152.905 258.678 153.764 258.325 154.724L255.56 162.247C255.56 162.247 214.74 166.509 218.142 206.574H230.762C230.731 207.713 230.777 208.852 230.898 209.984L325.083 209.217C330.604 209.172 335.477 213.656 335.5 219.19C335.505 220.537 335.24 221.872 334.719 223.114C334.198 224.356 333.433 225.48 332.469 226.419C331.505 227.358 330.361 228.092 329.108 228.578C327.854 229.063 326.515 229.29 325.172 229.246L309.987 228.738C305.31 249.623 316.791 263.689 329.441 272.533C341.351 280.739 355.484 285.09 369.936 285H411.187C464.764 285 474.119 239.82 474.119 239.82C502.183 227.886 498.672 192.851 498.672 192.851Z" fill="#3F3D56"/>
<path d="M510.474 309.721C536.893 309.721 558.31 288.253 558.31 261.771C558.31 235.288 536.893 213.82 510.474 213.82C484.055 213.82 462.638 235.288 462.638 261.771C462.638 288.253 484.055 309.721 510.474 309.721Z" fill="#3F3D56"/>
<path d="M510.474 273.523C516.949 273.523 522.199 268.262 522.199 261.771C522.199 255.28 516.949 250.018 510.474 250.018C503.999 250.018 498.75 255.28 498.75 261.771C498.75 268.262 503.999 273.523 510.474 273.523Z" fill="white"/>
<path d="M268.954 309.721C299.366 309.721 324.019 285.009 324.019 254.525C324.019 224.041 299.366 199.328 268.954 199.328C238.543 199.328 213.889 224.041 213.889 254.525C213.889 285.009 238.543 309.721 268.954 309.721Z" fill="#3F3D56"/>
<path d="M268.954 268.053C276.408 268.053 282.451 261.996 282.451 254.525C282.451 247.053 276.408 240.996 268.954 240.996C261.501 240.996 255.458 247.053 255.458 254.525C255.458 261.996 261.501 268.053 268.954 268.053Z" fill="white"/>
<path d="M429.976 142.156L419.879 114.665C419.353 113.232 419.113 111.71 419.174 110.184C419.235 108.658 419.595 107.16 420.233 105.774C420.872 104.388 421.777 103.141 422.896 102.105C424.015 101.07 425.327 100.265 426.756 99.7379L455.705 89.0556C458.22 88.1272 460.892 87.7045 463.57 87.8116C466.248 87.9187 468.879 88.5534 471.312 89.6796C473.745 90.8058 475.933 92.4014 477.751 94.3752C479.569 96.349 480.982 98.6625 481.908 101.183C482.743 103.446 483.169 105.84 483.167 108.252C483.156 111.316 482.465 114.338 481.143 117.1C479.821 119.862 477.901 122.294 475.524 124.219C473.807 125.6 471.876 126.691 469.809 127.449L429.976 142.156Z" fill="#3F3D56"/>
<path d="M482.742 108.252C482.74 111.253 482.066 114.215 480.771 116.921C479.476 119.627 477.592 122.007 475.258 123.886C471.677 122.94 468.345 121.222 465.494 118.854C462.642 116.486 460.339 113.524 458.744 110.174C457.15 106.823 456.303 103.165 456.261 99.4533C456.22 95.7415 456.986 92.0652 458.505 88.6799C461.422 88.0441 464.444 88.0712 467.349 88.7592C470.254 89.4472 472.969 90.7787 475.293 92.6559C477.618 94.5331 479.493 96.9083 480.782 99.6072C482.071 102.306 482.741 105.26 482.742 108.252Z" fill="#8338EC"/>
<path d="M225.37 212.115C231.946 212.115 237.276 205.627 237.276 197.624C237.276 189.62 231.946 183.132 225.37 183.132C218.795 183.132 213.464 189.62 213.464 197.624C213.464 205.627 218.795 212.115 225.37 212.115Z" fill="#8338EC"/>
<path d="M382.75 248.921H393.177L398.137 221.815L382.749 221.816L382.75 248.921Z" fill="#FFB8B8"/>
<path d="M380.091 245.509L400.623 245.508H400.624C402.342 245.508 404.044 245.847 405.631 246.506C407.219 247.165 408.662 248.132 409.877 249.35C411.092 250.567 412.055 252.013 412.713 253.605C413.371 255.196 413.709 256.902 413.709 258.624V259.05L380.091 259.052L380.091 245.509Z" fill="#2F2E41"/>
<path d="M394.852 237.796C394.731 237.796 394.609 237.79 394.486 237.778L380.058 236.725C379.474 236.671 378.911 236.483 378.411 236.176C377.912 235.869 377.489 235.451 377.176 234.955C376.863 234.458 376.668 233.896 376.606 233.312C376.544 232.728 376.616 232.137 376.818 231.586L396.128 188.098C396.266 187.71 396.323 187.298 396.294 186.888C396.265 186.477 396.152 186.077 395.961 185.712C395.771 185.343 395.505 185.019 395.181 184.76C394.857 184.502 394.482 184.315 394.081 184.212C385.001 181.833 361.704 175.498 341.536 168.085C332.896 164.909 327.454 160.32 325.362 154.444C322.604 146.698 326.684 139.634 326.86 139.337L326.996 139.105L345.973 140.834L366.546 142.588L411.63 166.822C415.407 168.869 418.277 172.268 419.667 176.342C421.057 180.415 420.865 184.864 419.129 188.801L398.344 235.522C398.043 236.199 397.554 236.774 396.934 237.177C396.314 237.581 395.591 237.796 394.852 237.796Z" fill="#2F2E41"/>
<path d="M349.273 54.7968C360.809 54.7968 370.16 45.4229 370.16 33.8596C370.16 22.2964 360.809 12.9225 349.273 12.9225C337.737 12.9225 328.386 22.2964 328.386 33.8596C328.386 45.4229 337.737 54.7968 349.273 54.7968Z" fill="#FFB8B8"/>
<path d="M376.797 251.478H387.224L392.184 224.373L376.796 224.374L376.797 251.478Z" fill="#FFB8B8"/>
<path d="M374.138 248.066L394.67 248.065H394.671C396.389 248.065 398.091 248.405 399.678 249.064C401.266 249.723 402.709 250.689 403.924 251.907C405.139 253.125 406.102 254.571 406.76 256.162C407.418 257.753 407.756 259.459 407.756 261.181V261.608L374.138 261.609L374.138 248.066Z" fill="#2F2E41"/>
<path d="M388.899 240.353C388.778 240.353 388.656 240.347 388.533 240.336L374.105 239.283C373.521 239.228 372.958 239.041 372.458 238.734C371.959 238.427 371.536 238.009 371.223 237.512C370.91 237.015 370.715 236.453 370.653 235.869C370.591 235.285 370.663 234.695 370.865 234.143L390.175 190.655C390.313 190.268 390.37 189.856 390.341 189.445C390.312 189.034 390.199 188.634 390.008 188.27C389.818 187.901 389.552 187.576 389.228 187.318C388.904 187.059 388.529 186.872 388.128 186.769C379.048 184.39 355.751 178.055 335.583 170.643C326.943 167.467 321.501 162.877 319.409 157.002C316.651 149.256 320.732 142.191 320.907 141.895L321.043 141.663L340.02 143.392L360.593 145.146L405.677 169.379C409.455 171.427 412.324 174.826 413.714 178.899C415.104 182.972 414.912 187.421 413.176 191.359L392.391 238.08C392.091 238.756 391.601 239.331 390.981 239.735C390.361 240.138 389.638 240.353 388.899 240.353Z" fill="#2F2E41"/>
<path d="M355.715 66.669L333.604 58.9969C333.604 58.9969 319.723 69.6867 326.391 96.2053C329.873 109.89 328.858 124.335 323.5 137.396C322.855 139.012 322.111 140.587 321.273 142.111C321.273 142.111 345.935 171.947 368.896 149.783L359.967 106.734C359.967 106.734 373.999 78.1772 355.715 66.669Z" fill="#8338EC"/>
<path d="M351.866 55.5088C348.894 51.0485 346.547 44.8638 349.82 40.62C353.051 36.4309 359.424 37.048 364.372 35.1944C371.263 32.6126 375.26 24.4967 374.014 17.2284C372.767 9.96005 366.947 3.93483 360.012 1.46951C353.078 -0.995811 345.259 -0.194031 338.469 2.64494C330.11 6.13975 322.939 12.9002 319.932 21.4639C316.925 30.0277 318.533 40.3101 324.77 46.8923C331.458 53.9492 341.954 55.8299 351.663 55.7158" fill="#2F2E41"/>
<path d="M332.437 17.4616C328.691 20.5184 322.976 19.1607 318.954 16.478C314.933 13.7953 311.671 9.97526 307.32 7.8719C299.65 4.16377 290.376 6.62883 282.911 10.7362C275.446 14.8437 268.829 20.5181 260.944 23.7414C253.059 26.9647 242.997 27.124 237.026 21.0377C235.556 25.305 235.436 29.9227 236.682 34.2609C237.927 38.5991 240.478 42.4465 243.985 45.2781C247.493 48.1096 251.786 49.7875 256.28 50.0828C260.774 50.3781 265.249 49.2764 269.095 46.928C277.735 41.6527 282.507 30.5919 292.198 27.6802C297.56 26.069 303.318 27.3667 308.738 28.7722C314.157 30.1778 319.808 31.6965 325.278 30.4999C330.747 29.3034 335.863 24.3767 335.167 18.8087L332.437 17.4616Z" fill="#2F2E41"/>
<path d="M450.756 106.805C450.207 105.585 449.397 104.5 448.384 103.628C447.371 102.755 446.179 102.116 444.893 101.755C443.607 101.394 442.258 101.32 440.94 101.538C439.622 101.757 438.368 102.262 437.267 103.019L356.077 84.7531L355.068 104.642L435.192 116.343C436.583 118.114 438.573 119.312 440.787 119.711C443 120.109 445.282 119.679 447.2 118.504C449.119 117.328 450.541 115.488 451.196 113.332C451.851 111.176 451.695 108.853 450.756 106.805V106.805Z" fill="#FFB8B8"/>
<path d="M370.312 86.5802L365.357 106.715C365.216 107.288 364.953 107.823 364.587 108.286C364.221 108.748 363.76 109.125 363.235 109.392C362.71 109.659 362.134 109.81 361.546 109.834C360.958 109.858 360.371 109.755 359.826 109.531L340.741 101.69C337.819 100.952 335.309 99.0824 333.761 96.4912C332.213 93.9 331.754 90.7991 332.484 87.8689C333.215 84.9387 335.075 82.4185 337.656 80.8614C340.238 79.3043 343.331 78.8375 346.255 79.5633L366.723 81.509C367.309 81.5649 367.876 81.7468 368.386 82.0421C368.895 82.3375 369.335 82.7395 369.676 83.2208C370.017 83.7021 370.25 84.2513 370.36 84.831C370.469 85.4107 370.453 86.0073 370.312 86.5802V86.5802Z" fill="#8338EC"/>
<path d="M441.377 122.608C444.665 122.608 447.33 119.936 447.33 116.64C447.33 113.345 444.665 110.673 441.377 110.673C438.09 110.673 435.424 113.345 435.424 116.64C435.424 119.936 438.09 122.608 441.377 122.608Z" fill="#6C63FF"/>
</g> 
<defs>
<clipPath id="clip0">
<rect width="705" height="311" fill="white"/>
</clipPath>
</defs>
</svg>
