<svg width="30" height="30" viewBox="0 0 30 30" fill="none" xmlns="http://www.w3.org/2000/svg">
<path d="M19.2188 23.9062H20.1562V27.6562H19.2188V23.9062Z" fill="white"/>
<path d="M21.0938 23.9062H22.0312V27.6562H21.0938V23.9062Z" fill="white"/>
<path d="M25.7812 16.8703V7.03125H24.8438V2.25891L23.9062 2.415V1.40625H22.9688V2.57156L22.0312 2.72766V0.46875H21.0938V2.88422L20.1562 3.04031V1.40625H19.2188V3.19641L18.2812 3.3525V7.03125H17.3438V11.7188H13.5938V5.15625H11.7188V2.34375H10.7812V0.46875H6.09375V2.34375H5.15625V5.15625H3.28125V13.9148C2.31 14.3784 1.60266 15.3033 1.44375 16.4062H0.46875V29.5312H29.5312V16.3345L25.7812 16.8703ZM19.2188 4.14703L23.9062 3.36562V7.03125H19.2188V4.14703ZM18.2812 7.96875H24.8438V17.0044L22.0312 17.4061V19.8441L20.625 17.9691L19.2188 19.8441V11.7188H18.2812V7.96875ZM18.2812 13.5938H11.7188V12.6562H18.2812V13.5938ZM18.2812 22.9688H22.9688V28.5938H18.2812V22.9688ZM18.75 22.0312L20.625 19.5314L22.5 22.0312H18.75ZM7.03125 1.40625H9.84375V2.34375H7.03125V1.40625ZM6.09375 3.28125H10.7812V5.15625H6.09375V3.28125ZM4.21875 6.09375H12.6562V11.7188H10.7812V13.9148C10.3542 13.7114 9.87844 13.5938 9.375 13.5938H4.6875C4.52812 13.5938 4.3725 13.6092 4.21875 13.6313V6.09375ZM4.6875 14.5312H9.375C10.5066 14.5312 11.4534 15.338 11.6714 16.4062H2.39109C2.60906 15.338 3.55594 14.5312 4.6875 14.5312ZM12.6562 17.3438V18.2812H1.40625V17.3438H12.6562ZM10.7812 25.7812H8.90625V23.9062H10.7812V25.7812ZM7.96875 25.7812H6.09375V23.9062H7.96875V25.7812ZM7.96875 26.7188V28.5938H6.09375V26.7188H7.96875ZM8.90625 26.7188H10.7812V28.5938H8.90625V26.7188ZM10.7812 22.9688H8.90625V21.0938H10.7812V22.9688ZM7.96875 22.9688H6.09375V21.0938H7.96875V22.9688ZM5.15625 22.9688H3.28125V21.0938H5.15625V22.9688ZM3.28125 23.9062H5.15625V25.7812H3.28125V23.9062ZM3.28125 26.7188H5.15625V28.5938H3.28125V26.7188ZM11.7188 28.5938V20.1562H2.34375V28.5938H1.40625V19.2188H12.6562V28.5938H11.7188ZM12.6187 16.4062C12.5175 15.7022 12.1941 15.0689 11.7188 14.5833V14.5312H18.2812V21.0938L17.3438 22.3439V28.5938H13.5938V16.4062H12.6187ZM28.5938 28.5938H23.9062V22.3439L22.9688 21.0938V18.2189L28.5938 17.4155V28.5938Z" fill="white"/>
<path d="M14.5312 15.4688H15.4688V16.4062H14.5312V15.4688Z" fill="white"/>
<path d="M14.5312 26.7188H15.4688V27.6562H14.5312V26.7188Z" fill="white"/>
<path d="M14.5312 17.3438H15.4688V18.2812H14.5312V17.3438Z" fill="white"/>
<path d="M14.5312 24.8438H15.4688V25.7812H14.5312V24.8438Z" fill="white"/>
<path d="M14.5312 21.0938H15.4688V22.0312H14.5312V21.0938Z" fill="white"/>
<path d="M14.5312 19.2188H15.4688V20.1562H14.5312V19.2188Z" fill="white"/>
<path d="M14.5312 22.9688H15.4688V23.9062H14.5312V22.9688Z" fill="white"/>
<path d="M16.4062 19.2188H17.3438V20.1562H16.4062V19.2188Z" fill="white"/>
<path d="M16.4062 17.3438H17.3438V18.2812H16.4062V17.3438Z" fill="white"/>
<path d="M16.4062 15.4688H17.3438V16.4062H16.4062V15.4688Z" fill="white"/>
<path d="M26.7188 26.7188H27.6562V27.6562H26.7188V26.7188Z" fill="white"/>
<path d="M26.7188 22.9688H27.6562V23.9062H26.7188V22.9688Z" fill="white"/>
<path d="M26.7188 24.8438H27.6562V25.7812H26.7188V24.8438Z" fill="white"/>
<path d="M26.7188 21.0938H27.6562V22.0312H26.7188V21.0938Z" fill="white"/>
<path d="M26.7188 19.2188H27.6562V20.1562H26.7188V19.2188Z" fill="white"/>
<path d="M24.8438 24.8438H25.7812V25.7812H24.8438V24.8438Z" fill="white"/>
<path d="M24.8438 19.2188H25.7812V20.1562H24.8438V19.2188Z" fill="white"/>
<path d="M24.8438 22.9688H25.7812V23.9062H24.8438V22.9688Z" fill="white"/>
<path d="M24.8438 26.7188H25.7812V27.6562H24.8438V26.7188Z" fill="white"/>
<path d="M24.8438 21.0938H25.7812V22.0312H24.8438V21.0938Z" fill="white"/>
<path d="M10.7812 7.03125H11.7188V7.96875H10.7812V7.03125Z" fill="white"/>
<path d="M8.90625 7.03125H9.84375V7.96875H8.90625V7.03125Z" fill="white"/>
<path d="M5.15625 7.03125H6.09375V7.96875H5.15625V7.03125Z" fill="white"/>
<path d="M7.03125 7.03125H7.96875V7.96875H7.03125V7.03125Z" fill="white"/>
<path d="M7.03125 8.90625H7.96875V9.84375H7.03125V8.90625Z" fill="white"/>
<path d="M10.7812 8.90625H11.7188V9.84375H10.7812V8.90625Z" fill="white"/>
<path d="M5.15625 8.90625H6.09375V9.84375H5.15625V8.90625Z" fill="white"/>
<path d="M8.90625 8.90625H9.84375V9.84375H8.90625V8.90625Z" fill="white"/>
<path d="M5.15625 10.7812H6.09375V11.7188H5.15625V10.7812Z" fill="white"/>
<path d="M7.03125 10.7812H7.96875V11.7188H7.03125V10.7812Z" fill="white"/>
<path d="M8.90625 10.7812H9.84375V11.7188H8.90625V10.7812Z" fill="white"/>
<path d="M22.9688 8.90625H23.9062V9.84375H22.9688V8.90625Z" fill="white"/>
<path d="M21.0938 8.90625H22.0312V9.84375H21.0938V8.90625Z" fill="white"/>
<path d="M19.2188 8.90625H20.1562V9.84375H19.2188V8.90625Z" fill="white"/>
<path d="M22.9688 10.7812H23.9062V11.7188H22.9688V10.7812Z" fill="white"/>
<path d="M19.2188 10.7812H20.1562V11.7188H19.2188V10.7812Z" fill="white"/>
<path d="M21.0938 10.7812H22.0312V11.7188H21.0938V10.7812Z" fill="white"/>
<path d="M21.0938 16.4062H22.0312V17.3438H21.0938V16.4062Z" fill="white"/>
<path d="M21.0938 14.5312H22.0312V15.4688H21.0938V14.5312Z" fill="white"/>
<path d="M21.0938 12.6562H22.0312V13.5938H21.0938V12.6562Z" fill="white"/>
<path d="M22.9688 14.5312H23.9062V15.4688H22.9688V14.5312Z" fill="white"/>
<path d="M22.9688 12.6562H23.9062V13.5938H22.9688V12.6562Z" fill="white"/>
</svg>
