<svg width="30" height="30" viewBox="0 0 30 30" fill="none" xmlns="http://www.w3.org/2000/svg">
<g clip-path="url(#clip0)">
<path d="M0 9.68513H6.63826V3.04688H0V9.68513ZM1.75804 4.80492H4.88045V7.92732H1.75804V4.80492Z" fill="white"/>
<path d="M8.74786 3.04688V9.68513H30V3.04688H8.74786ZM28.242 7.92732H10.5059V4.80492H28.242V7.92732Z" fill="white"/>
<path d="M0 18.2989H6.63826V11.6606H0V18.2989ZM1.75804 13.4185H4.88045V16.5409H1.75804V13.4185Z" fill="white"/>
<path d="M8.74786 18.2989H30V11.6606H8.74786V18.2989ZM10.5059 13.4185H28.242V16.5409H10.5059V13.4185Z" fill="white"/>
<path d="M0 26.9127H6.63826V20.2742H0V26.9127ZM1.75804 22.0322H4.88045V25.1546H1.75804V22.0322Z" fill="white"/>
<path d="M8.74786 26.9127H30V20.2742H8.74786V26.9127ZM10.5059 22.0322H28.242V25.1546H10.5059V22.0322Z" fill="white"/>
</g>
<defs>
<clipPath id="clip0">
<rect width="30" height="30" fill="white"/>
</clipPath>
</defs>
</svg>
